<svg t="1587814781925" class="icon" viewBox="0 0 1024 1024" version="1.1" xmlns="http://www.w3.org/2000/svg" p-id="6125" data-darkreader-inline-fill="" width="200" height="200">
    <path d="M85.333333 512c0 235.648 191.018667 426.666667 426.666667 426.666667s426.666667-191.018667 426.666667-426.666667S747.648 85.333333 512 85.333333 85.333333 276.352 85.333333 512z" fill="#306CFF" p-id="6126" data-darkreader-inline-fill="" style="--darkreader-inline-fill:#1256ff"/>
    <path d="M467.114667 208.64c-9.813333-6.144-22.058667-9.813333-34.304-7.381333-8.533333 1.237333-15.914667 4.906667-24.490667 11.008-13.44 9.813333-22.016 23.296-28.16 39.210666-9.813333 25.685333-9.813333 55.082667-2.432 80.810667 4.906667 17.152 14.677333 34.261333 29.397333 45.312 9.813333 7.338667 20.778667 11.008 33.024 11.008 11.050667-1.237333 23.296-6.101333 31.829334-13.482667 11.050667-9.813333 19.626667-22.016 24.533333-35.498666a121.472 121.472 0 0 0 2.432-85.717334c-6.144-18.346667-15.914667-34.261333-31.829333-45.312z m166.528 9.770667c-7.381333-3.669333-15.914667-4.906667-24.490667-3.669334-9.813333 2.432-19.626667 8.533333-26.965333 13.482667-9.813333 9.813333-18.346667 19.584-25.685334 31.829333a96.554667 96.554667 0 0 0-14.72 36.693334c-1.194667 14.72-1.194667 29.44 1.237334 44.117333 3.669333 13.44 8.533333 26.922667 19.626666 36.693333 9.770667 9.813333 24.448 14.72 37.930667 15.957334 11.008 1.237333 23.253333-1.237333 33.066667-7.338667 11.008-6.144 19.584-15.914667 26.922666-25.728 7.338667-11.008 13.482667-24.490667 15.914667-39.168 3.669333-11.050667 4.906667-22.058667 3.669333-34.304a106.666667 106.666667 0 0 0-19.584-45.312c-7.338667-9.813333-15.914667-18.346667-26.922666-23.253333zM329.984 346.965333a59.776 59.776 0 0 0-37.973333-6.101333c-14.677333 2.432-28.16 12.245333-35.498667 24.490667-12.245333 18.346667-18.346667 37.973333-20.821333 58.752-2.474667 12.245333 0 24.490667 2.432 36.736 4.906667 17.152 13.482667 34.304 26.965333 46.506666 9.813333 9.813333 24.490667 14.72 37.973333 14.72 17.109333 0 34.261333-6.101333 46.506667-17.152 9.813333-8.533333 17.109333-20.778667 20.821333-34.261333 4.864-18.346667 6.101333-39.168 3.669334-58.794667 0-6.613333-2.218667-12.458667-4.309334-18.176-0.64-1.706667-1.28-3.413333-1.834666-5.077333-8.533333-17.152-20.821333-31.829333-37.973334-41.642667z m419.968 46.506667c-13.482667-7.296-30.592-9.770667-45.312-7.296-8.533333 1.194667-17.152 3.669333-24.490667 7.338667-11.008 7.338667-18.346667 17.152-23.253333 28.16-7.338667 15.914667-9.813333 31.829333-9.813333 48.981333 0 15.914667 0 33.066667 4.906666 47.786667 3.669333 10.965333 9.813333 22.016 19.626667 29.354666 11.008 8.533333 24.448 12.245333 37.930667 13.482667 11.008 1.194667 23.253333 0 34.304-2.474667 11.008-2.432 20.778667-9.813333 28.16-18.346666 7.338667-8.576 12.245333-20.821333 14.677333-31.829334 2.944-12.757333 2.730667-26.24 2.56-39.936-0.042667-3.413333-0.128-6.826667-0.128-10.282666 0-12.245333-4.864-23.253333-9.813333-34.304a88.021333 88.021333 0 0 0-29.354667-30.592z m-205.696 61.269333c-13.482667-6.144-29.397333-9.813333-45.312-7.338666-26.965333 2.432-52.650667 18.346667-68.565333 39.168-3.029333 3.029333-5.12 6.528-7.168 9.898666-1.28 2.133333-2.474667 4.138667-3.84 6.016-12.245333 18.346667-28.16 35.498667-44.117334 51.413334-4.266667 4.266667-8.874667 8.277333-13.44 12.245333-4.608 4.010667-9.216 7.978667-13.482666 12.245333-2.816 3.541333-6.058667 5.845333-9.258667 8.106667-2.304 1.706667-4.608 3.285333-6.656 5.376-18.346667 14.677333-36.736 31.829333-47.786667 52.650667-8.533333 13.482667-12.202667 29.397333-13.44 45.312 0 13.482667 2.432 26.922667 6.144 40.405333 3.669333 13.482667 11.008 26.922667 19.584 37.973333 14.677333 19.584 37.973333 30.592 61.226667 31.829334 28.16 1.194667 57.514667 0 85.674667-4.906667 5.12-0.938667 10.069333-2.048 14.933333-3.114667 7.850667-1.792 15.445333-3.456 23.04-4.266666a225.962667 225.962667 0 0 1 80.810667 6.144 251.349333 251.349333 0 0 0 67.370666 12.245333c23.253333 0 47.744-2.432 68.565334-13.482667 14.677333-8.533333 26.922667-20.778667 34.261333-36.693333 8.576-20.821333 14.72-44.117333 12.245333-67.370667-2.432-22.016-11.008-42.837333-26.922666-58.752-2.474667-2.474667-6.144-6.144-9.813334-8.576a829.866667 829.866667 0 0 1-58.752-53.888c-19.626667-19.626667-37.973333-40.405333-53.888-63.658666-12.245333-20.821333-29.397333-39.210667-51.413333-48.981334z m-94.293333 146.944v-57.6h39.168v206.933334H419.413333c-7.381333 0-14.72 0-22.058666-1.194667a71.509333 71.509333 0 0 1-39.168-25.728c-7.381333-8.533333-11.050667-20.821333-13.482667-31.829333a86.656 86.656 0 0 1 0-35.498667c3.669333-13.482667 11.008-25.728 20.821333-35.498667 8.533333-7.338667 18.346667-13.482667 29.397334-17.152 3.669333-1.237333 8.533333-2.474667 13.44-2.474666h41.642666z m61.226666 107.733334v-104.106667h40.405334v96.768c0 3.669333 1.237333 7.338667 3.669333 11.008a15.701333 15.701333 0 0 0 12.245333 4.906667h41.642667v-112.64h39.168v145.706666h-95.488a40.874667 40.874667 0 0 1-28.16-11.050666 41.728 41.728 0 0 1-13.482667-30.592z m-87.722666-77.909334a17.706667 17.706667 0 0 0-8.533334 2.432c-7.381333 3.712-14.72 8.576-19.626666 18.389334a69.290667 69.290667 0 0 0-3.669334 22.058666c-1.237333 8.533333 2.432 18.346667 7.338667 25.685334 6.144 8.576 17.152 13.482667 28.16 13.482666h31.829333V631.466667h-35.498666z" fill="#FFFFFF" p-id="6127" data-darkreader-inline-fill="" style="--darkreader-inline-fill:#eae7e1"/>
</svg>
