<svg width="800" height="600" xmlns="http://www.w3.org/2000/svg">
 <!-- Created with Method Draw - http://github.com/duopixel/Method-Draw/ -->

 <g>
  <title>background</title>
  <rect x="-1" y="-1" width="802" height="602" id="canvas_background" fill="none"/>
  <g id="canvasGrid" display="none">
   <rect id="svg_1" width="100%" height="100%" x="0" y="0" stroke-width="0" fill="url(#gridpattern)"/>
  </g>
 </g>
 <g>
  <title>Layer 1</title>
  <path fill="#000000" stroke="#000" stroke-width="0" stroke-opacity="null" fill-opacity="null" opacity="0.5" d="m528.68719,121.84518" id="svg_8"/>
  <path fill="#ff5656" stroke="#000" stroke-width="0" stroke-opacity="null" d="m396.75214,89c-58.50003,23.33334 -98,70.66666 -97.50003,118l124,-1c27,0.66667 26,40.33333 0,41c-54.66666,-0.33333 -109.33328,-0.66667 -164,-1c-60.99998,1 -61.66667,102.66666 0,103c61.66672,0.33334 21,0.33334 44,0c23,-0.33334 23,39.33334 0,40c-41.33334,0.33334 -51.66666,0.66666 -92.99997,1c-75.66667,0.83334 -75.33334,118.66663 -3,119c-0.66667,0.33334 375.66669,1.66669 375,2c85.66663,-0.66663 86.33337,-120.33334 0,-121c-76.33334,0.66666 -121.66666,-0.66666 -198,0c-23.66666,0.33334 -24.33334,-40.33334 0,-41c52,-0.66666 98,-0.33334 156,0c58,0.33334 58,-102.33333 0,-102l-34,0c21.66669,-13.33333 25.33337,-37.66667 -4,-64c-35.16663,-31.33334 -104.33334,-28.66666 -105.49997,-94l-0.00003,0z" id="svg_9"/>
 </g>
</svg>