<?xml version="1.0" encoding="utf-8"?>
<!--Generator: Adobe Illustrator 23.0.0, SVG Export Plug-In . SVG Version: 6.00 Build 0)-->
<svg version="1.1" id="图层_1" xmlns="http://www.w3.org/2000/svg" xmlns:xlink="http://www.w3.org/1999/xlink" x="0px" y="0px" viewBox="0 0 200 50" style="enable-background: new 0 0 200 50" xml:space="preserve">
	<style type="text/css">
    </style>
    <text font-size="18" textLength="117.7" fill="#e1cf76" x="59.1" y="32.5">
        SH IT Search
    </text>
	<g>
		<g transform="matrix(0.4,0,0,0.4,18.6,10.1)">
            <path d="M 465.1 328.9 c 7.4 -12.2 11.7 -26.5 11.7 -41.8 c 0 -41.4 -31.3 -75.5 -71.5 -79.9 c 7.1 -12 11.3 -26 11.3 -41 c 0 -44.4 -36 -80.4 -80.4 -80.4 h -28.8 c -7.2 -5 -53.1 -38.9 -23.2 -68.3 c 8.8 -8.6 -13 -20.9 -33.3 -7.4 c -11.4 7.6 -41.8 30.4 -32.8 75.6 h -3.4 c -44.4 0 -80.4 36 -80.4 80.4 c 0 15 4.1 29 11.2 41 c -40.2 4.4 -71.5 38.5 -71.5 79.9 c 0 15.3 4.3 29.6 11.7 41.8 C 48 335.6 19.4 368.5 19.4 408.1 c 0 44.4 36 80.4 80.4 80.4 h 351.2 c 44.4 0 80.4 -36 80.4 -80.4 C 531.4 368.5 502.8 335.6 465.1 328.9 z" style="fill: #e1cf76" transform="matrix(0.1,0,0,0.1,23.3,11)"/>
            <g transform="matrix(0.1,0,0,0.1,31.2,13)">
                <path d="M 330.4 292.4 c 7.4 -12.2 11.7 -26.5 11.7 -41.8 c 0 -41.4 -31.3 -75.5 -71.5 -79.9 c 7.1 -12 11.3 -26 11.3 -41 c 0 -44.4 -36 -80.4 -80.4 -80.4 h -28.8 c -2.7 -1.9 -10.9 -7.9 -18.5 -16.1 v 418.7 h 162.1 c 44.4 0 80.4 -36 80.4 -80.4 C 396.6 332 368 299.1 330.4 292.4 z" style="fill: #dbc55b"/>
            </g>
        </g>
        </g>
</svg>
