<svg width="800" height="600" xmlns="http://www.w3.org/2000/svg">
 <!-- Created with Method Draw - http://github.com/duopixel/Method-Draw/ -->

 <g>
  <title>background</title>
  <rect x="-1" y="-1" width="802" height="602" id="canvas_background" fill="none"/>
  <g id="canvasGrid" display="none">
   <rect id="svg_1" width="100%" height="100%" x="0" y="0" stroke-width="0" fill="url(#gridpattern)"/>
  </g>
 </g>
 <g>
  <title>Layer 1</title>
  <path fill="#000000" stroke="#000" stroke-width="0" stroke-opacity="null" fill-opacity="null" opacity="0.5" d="m528.687195,121.845177" id="svg_8"/>
  <path fill="#ff5656" stroke-width="0" stroke-opacity="null" d="m371.904358,257.500031c-10.728394,4.257477 -17.972382,12.894104 -17.880707,21.530792l22.740601,-0.182465c4.951569,0.121643 4.768158,7.359375 0,7.481018c-10.025421,-0.060822 -20.050842,-0.121643 -30.076263,-0.182434c-11.18692,0.182434 -11.309174,18.733002 0,18.793793c11.309174,0.060852 3.851196,0.060852 8.069244,0c4.218018,-0.060791 4.218018,7.176941 0,7.298584c-7.5802,0.060822 -9.47525,0.121674 -17.05545,0.182465c-13.876648,0.1521 -13.815521,21.652435 -0.550171,21.713287c-0.122253,0.060822 68.894226,0.304108 68.771973,0.364929c15.710571,-0.121643 15.832825,-21.956543 0,-22.078217c-13.998901,0.121674 -22.312683,-0.121643 -36.311584,0c-4.340271,0.060852 -4.462524,-7.359406 0,-7.481049c9.536377,-0.121613 17.972412,-0.060791 28.609131,0c10.636749,0.060852 10.636749,-18.672211 0,-18.611389l-6.235321,0c3.973511,-2.432831 4.645966,-6.872803 -0.733582,-11.677704c-6.449249,-5.717194 -19.133881,-5.230621 -19.347809,-17.151642l-0.000031,0l0,0.000031l-0.000031,0z" id="svg_9" stroke="#000"/>
  <text font-style="normal" font-weight="normal" fill="#FFAFCC" stroke-width="0" stroke-opacity="null" x="57.11648" y="331.27597" id="svg_13" font-size="63" font-family="'Times New Roman', Times, serif" text-anchor="start" xml:space="preserve" transform="matrix(1.72808 0 0 1.25424 -48.9633 -85.9717)" stroke="#000">SHIT      Search</text>
 </g>
</svg>