<svg width="800" height="600" xmlns="http://www.w3.org/2000/svg">
 <!-- Created with Method Draw - http://github.com/duopixel/Method-Draw/ -->

 <g>
  <title>background</title>
  <rect fill="none" id="canvas_background" height="602" width="802" y="-1" x="-1"/>
  <g display="none" id="canvasGrid">
   <rect fill="url(#gridpattern)" stroke-width="0" y="0" x="0" height="100%" width="100%" id="svg_1"/>
  </g>
 </g>
 <g>
  <title>Layer 1</title>
  <path id="svg_8" d="m528.68719,121.84518" opacity="0.5" fill-opacity="null" stroke-opacity="null" stroke-width="0" stroke="#000" fill="#000000"/>
  <path stroke="#000" id="svg_9" d="m97.90437,261.50003c-10.72842,4.25748 -17.97241,12.8941 -17.88071,21.53079l22.74059,-0.18246c4.95158,0.12164 4.76817,7.35938 0,7.48102c-10.02542,-0.06082 -20.05083,-0.12164 -30.07626,-0.18243c-11.18691,0.18243 -11.30917,18.733 0,18.79379c11.30916,0.06085 3.8512,0.06085 8.06924,0c4.21801,-0.06079 4.21801,7.17694 0,7.29858c-7.5802,0.06082 -9.47525,0.12167 -17.05544,0.18246c-13.87665,0.1521 -13.81552,21.65244 -0.55017,21.71329c-0.12226,0.06082 68.89422,0.30411 68.77197,0.36493c15.71057,-0.12164 15.83284,-21.95654 0,-22.07822c-13.99891,0.12167 -22.31268,-0.12164 -36.31158,0c-4.34028,0.06085 -4.46255,-7.35941 0,-7.48105c9.53638,-0.12161 17.9724,-0.06079 28.60912,0c10.63673,0.06085 10.63673,-18.67221 0,-18.61139l-6.23531,0c3.9735,-2.43283 4.64594,-6.8728 -0.73359,-11.6777c-6.44926,-5.71719 -19.13389,-5.23062 -19.34783,-17.15164l-0.00001,0l-0.00001,0.00003z" stroke-opacity="null" stroke-width="0" fill="#ff5656"/>
  <text stroke="#000" transform="matrix(1.72808 0 0 1.25424 72.0731 -87.9717)" xml:space="preserve" text-anchor="start" font-family="'Times New Roman', Times, serif" font-size="63" id="svg_13" y="331.27597" x="57.11648" stroke-opacity="null" stroke-width="0" fill="#4c4c4c" font-weight="normal" font-style="normal">SHIT Search</text>
 </g>
</svg>