<svg width="800" height="600" xmlns="http://www.w3.org/2000/svg">
 <!-- Created with Method Draw - http://github.com/duopixel/Method-Draw/ -->

 <g>
  <title>background</title>
  <rect x="-1" y="-1" width="802" height="602" id="canvas_background" fill="none"/>
  <g id="canvasGrid" display="none">
   <rect id="svg_1" width="100%" height="100%" x="0" y="0" stroke-width="0" fill="url(#gridpattern)"/>
  </g>
 </g>
 <g>
  <title>Layer 1</title>
  <path fill="#000000" stroke="#000" stroke-width="0" stroke-opacity="null" fill-opacity="null" opacity="0.5" d="m528.68719,121.84518" id="svg_8"/>
  <path stroke="#000" fill="#ffffff" stroke-width="0" stroke-opacity="null" d="m68.78591,253c-12.86214,5.19748 -21.54685,15.74091 -21.43691,26.28436l27.26335,-0.22275c5.93636,0.1485 5.71649,8.98419 0,9.13269c-12.01933,-0.07425 -24.03864,-0.1485 -36.05797,-0.22272c-13.41181,0.22272 -13.55839,22.86887 0,22.94308c13.55838,0.07428 4.61716,0.07428 9.67409,0c5.05691,-0.07422 5.05691,8.76147 0,8.90997c-9.08779,0.07425 -11.35973,0.1485 -20.44751,0.22272c-16.6365,0.18567 -16.56321,26.43286 -0.65959,26.50714c-0.14658,0.07425 82.59623,0.37125 82.44962,0.4455c18.83517,-0.1485 18.98177,-26.80411 0,-26.95264c-16.78307,0.14853 -26.75032,-0.14847 -43.53338,0c-5.2035,0.07431 -5.35009,-8.98419 0,-9.13269c11.43301,-0.14847 21.54683,-0.07422 34.29902,0c12.75221,0.07428 12.75221,-22.79462 0,-22.72037l-7.47541,0c4.76376,-2.97 5.56994,-8.3902 -0.87949,-14.25592c-7.73192,-6.97946 -22.93932,-6.38544 -23.19581,-20.93839l-0.00001,0z" id="svg_9"/>
  <text font-style="normal" font-weight="normal" fill="#ffffff" stroke-width="0" stroke-opacity="null" x="57.11648" y="331.27597" id="svg_13" font-size="63" font-family="Georgia, Times, 'Times New Roman', serif" text-anchor="start" xml:space="preserve" transform="matrix(1.72808 0 0 1.25424 72.0731 -87.9673)" stroke="#000">SHIT Search</text>
 </g>
</svg>